<svg xmlns="http://www.w3.org/2000/svg" id="Camada_1" data-name="Camada 1" viewBox="0 0 838 299.5"><defs><style>.cls-1{fill:#8700f5;}.cls-2{fill:#01fbba;}.cls-3{fill:none;}</style></defs><title>glocal_aceleradora_logo_01</title><rect class="cls-1" x="163.65" y="186.1" width="674.35" height="113.4"></rect><rect class="cls-1" width="163.65" height="186.1"></rect><path class="cls-2" d="M613.23,332.37V267.5c.88,0,1.69-.12,2.49-.12q11.25,0,22.49,0c15.85,0,29.39,12.3,31.6,28,2.41,17.14-8.64,34.63-28.46,36.8C632.15,333.21,622.76,332.37,613.23,332.37Zm16.08-15h7.1c10,0,16-4.95,17.49-14.75,1.23-8.38-2.52-17.14-11.48-19.27-4.18-1-8.64-.84-13.11-1.21Z" transform="translate(-40.5 -57.16)"></path><path class="cls-2" d="M739.31,300a32.77,32.77,0,0,1-33.14,33.28C686.28,333.2,673,317,673,299.87a33.55,33.55,0,0,1,33.64-33.18C724.49,266.93,739.86,282.16,739.31,300Zm-16,.07c0-7.09-2.55-12.92-9-16.23a16.62,16.62,0,0,0-17.91,1.12c-5.73,4-7.42,9.83-7.14,16.56.43,10.19,8.69,18.31,20.48,16.15C718.38,316,723.26,309.39,723.28,300Z" transform="translate(-40.5 -57.16)"></path><path class="cls-2" d="M545.83,332.54l-13.85-20c.07,0,.33-.24.62-.4,15.66-8.44,13.56-30.61,2.29-38.93a30.15,30.15,0,0,0-17.9-5.82c-5.49-.1-11,0-16.49,0h-7.73v65h15.94V318.12a46.8,46.8,0,0,1,6.31.05c3.81.56,5.46,3.75,7.35,6.58.73,1.1,2.5,4.34,4.46,7.79ZM520,302.35c-3.61.37-7.25.41-11.27.62V282.22c4.31.26,8.31.18,12.19.82,5,.83,8,5.09,7.72,10.34A9.17,9.17,0,0,1,520,302.35Z" transform="translate(-40.5 -57.16)"></path><path class="cls-2" d="M442.46,267.46h44.38V282.4H458.43v9.92h25.95v15.06h-25.9v9.92H486.9v15.08H442.46Z" transform="translate(-40.5 -57.16)"></path><path class="cls-2" d="M389,282.51H360.73v9.81h25.82v15.13H360.72v9.9h28.35v15H344.71V267.53H389Z" transform="translate(-40.5 -57.16)"></path><path class="cls-3" d="M252.82,308.26h8.91c-1.48-3.89-2.88-7.59-4.51-11.89C255.58,300.79,254.22,304.48,252.82,308.26Z" transform="translate(-40.5 -57.16)"></path><path class="cls-2" d="M287.76,330.67Q276.34,302.3,264.91,274c-.41-1-1.29-3.81-2.26-6.57H252.29c-6.2,15.4-14.33,35.7-20.06,49.71-2,5-4.07,10.09-6.23,15.45h18c.69-1.65,2.07-5.84,3.07-9,5.72.05,15,.08,20.27,0,1.3,3.46,2.87,7.54,3.44,8.92,5.77,0,13.3,0,17.65,0C288.09,331.58,287.94,331.12,287.76,330.67Zm-34.94-22.41c1.4-3.78,2.76-7.47,4.4-11.89,1.63,4.3,3,8,4.51,11.89Z" transform="translate(-40.5 -57.16)"></path><path class="cls-2" d="M328.72,313.89a1,1,0,0,1-.26.28c-7.88,5.84-19.13,4.92-25.14-1.92-3.51-4-4.46-8.8-4.11-13.95.48-6.94,3.54-12.34,10.11-15,7-2.84,13.64-1.55,19.78,2.79l0,.07,1.41.94c3.41-3.08,7.87-7.21,10.2-9.4-8.95-10.43-24.43-13.84-37.6-8.33-11.36,4.75-21.63,16.89-20,34.14a32.83,32.83,0,0,0,25,28.76c12.57,3.18,25.91-1.75,32.5-10.12-2-1.89-6.59-6.33-9.91-9.62Z" transform="translate(-40.5 -57.16)"></path><path class="cls-2" d="M410.59,317.43h27v15H394.84V267.51h15.75Z" transform="translate(-40.5 -57.16)"></path><path class="cls-3" d="M573.09,308.05H582l-4.51-11.88C575.85,300.59,574.48,304.28,573.09,308.05Z" transform="translate(-40.5 -57.16)"></path><path class="cls-2" d="M608,330.47q-11.41-28.37-22.84-56.73c-.41-1-1.29-3.81-2.27-6.57H572.56c-6.2,15.4-14.33,35.71-20.06,49.71-2.06,5-4.08,10.09-6.24,15.45h18c.69-1.64,2.07-5.84,3.07-8.94,5.72.05,15,.07,20.27,0,1.3,3.47,2.86,7.54,3.44,8.92,5.77,0,13.3,0,17.65,0C608.36,331.37,608.2,330.91,608,330.47Zm-34.93-22.42c1.39-3.77,2.76-7.46,4.4-11.88L582,308.05Z" transform="translate(-40.5 -57.16)"></path><path class="cls-3" d="M821.76,308.3h8.91c-1.47-3.89-2.88-7.59-4.51-11.88C824.53,300.84,823.16,304.52,821.76,308.3Z" transform="translate(-40.5 -57.16)"></path><path class="cls-2" d="M856.7,330.71Q845.29,302.35,833.86,274c-.41-1-1.29-3.81-2.27-6.57H821.24c-6.21,15.4-14.34,35.7-20.06,49.71-2.06,5-4.08,10.09-6.24,15.45h18c.69-1.64,2.06-5.84,3.07-8.95,5.72.05,15,.08,20.27,0,1.3,3.46,2.86,7.54,3.44,8.92,5.76,0,13.29,0,17.65,0C857,331.62,856.88,331.16,856.7,330.71ZM821.76,308.3c1.4-3.78,2.77-7.46,4.4-11.88,1.63,4.29,3,8,4.51,11.88Z" transform="translate(-40.5 -57.16)"></path><path class="cls-2" d="M796.14,332.73l-13.85-20c.07,0,.34-.24.63-.4,15.65-8.45,13.56-30.62,2.28-38.93a30.15,30.15,0,0,0-17.89-5.82c-5.5-.1-11,0-16.5,0h-7.73v65H759V318.32a46.8,46.8,0,0,1,6.31.05c3.81.56,5.46,3.75,7.35,6.58.74,1.09,2.5,4.34,4.46,7.79Zm-25.85-30.18c-3.61.37-7.25.41-11.27.62V282.42c4.31.26,8.31.18,12.19.82,5,.83,8,5.08,7.72,10.34A9.17,9.17,0,0,1,770.29,302.55Z" transform="translate(-40.5 -57.16)"></path><path class="cls-3" d="M162.53,130.71a3.9,3.9,0,0,0,2.82,2.35c.82.06,2.07-1.39,2.54-2.43a9.79,9.79,0,0,0,.51-3.92c.06-7.59.11-15.17,0-22.75a80.63,80.63,0,0,0-.58-9.95,3.22,3.22,0,0,0-2.31-2.19,4.32,4.32,0,0,0-3,1.84A6.42,6.42,0,0,0,162,97c-.06,5.08,0,10.16,0,15.24h-.06c0,3.5-.07,7,0,10.5A43.52,43.52,0,0,0,162.53,130.71Z" transform="translate(-40.5 -57.16)"></path><path class="cls-3" d="M125,185.68c-.89,6-1.78,12-2.68,18.13H128l-2.58-18.14Z" transform="translate(-40.5 -57.16)"></path><path class="cls-2" d="M158,148.5a40.94,40.94,0,0,0,9.91.67c9.7-.19,17.15-6.88,17.91-16.6.51-6.45.1-13,.1-19.46h0c0-6.91.27-13.83-.07-20.72a16.85,16.85,0,0,0-13-15.84,40.39,40.39,0,0,0-10.83-.79C152.71,76,144.94,83,144.6,92.29c-.48,13.39-.41,26.81,0,40.19A16.87,16.87,0,0,0,158,148.5Zm3.9-36.22H162c0-5.08,0-10.16,0-15.24a6.42,6.42,0,0,1,.59-3.38,4.32,4.32,0,0,1,3-1.84A3.22,3.22,0,0,1,167.87,94a80.63,80.63,0,0,1,.58,9.95c.06,7.58,0,15.16,0,22.75a9.79,9.79,0,0,1-.51,3.92c-.47,1-1.72,2.49-2.54,2.43a3.9,3.9,0,0,1-2.82-2.35,43.52,43.52,0,0,1-.6-7.93C161.84,119.29,161.91,115.78,161.91,112.28Z" transform="translate(-40.5 -57.16)"></path><path class="cls-2" d="M77.63,149.24c5.65.31,10.86-.71,15.65-4.2,2,3.93,5.21,3.42,8.4,3,0-12.48,0-24.8,0-37.11,0-1.47-.87-1.54-2-1.54-3.92,0-7.83,0-11.75,0H81.64v13.82l3.42.51a65.85,65.85,0,0,1-.72,7.72,3.37,3.37,0,0,1-2.42,2,3.82,3.82,0,0,1-2.84-1.45,5.46,5.46,0,0,1-.67-3.09q-.16-12.36-.21-24.73c0-2.83,0-5.66.22-8.48.11-1.62.64-3.29,2.58-3.47s2.81,1.2,3,2.95c.27,2.47.45,4.94.69,7.52h16.93c-.27-4.53-.16-8.89-.86-13.13-1-6-4.1-11-10.22-12.64a37.41,37.41,0,0,0-13-1.12c-7.46.66-13,4.56-15.77,11.87-1.61,4.18-1.37,8.49-1.33,12.79.11,10.9.1,21.82.57,32.71C61.41,142.35,68.5,148.74,77.63,149.24Z" transform="translate(-40.5 -57.16)"></path><path class="cls-2" d="M116.09,154.09c-4.92,23.86-9.82,47.59-14.75,71.5h17c.6-3.16,1.2-6.29,1.83-9.56,2.68,0,5.18.09,7.66,0,1.77-.09,2.53.5,2.71,2.32.23,2.44.78,4.86,1.18,7.26h17.65l-14.57-71.49Zm6.19,49.72c.9-6.13,1.79-12.13,2.68-18.13h.45L128,203.81Z" transform="translate(-40.5 -57.16)"></path><path class="cls-2" d="M170.21,209.27v-3.52c0-12.73,0-34.75,0-51.66h-17l-.57,0v71.47h33.6V209.27Z" transform="translate(-40.5 -57.16)"></path><path class="cls-2" d="M141,131.64H124.75V76.74H107.58v71.39H141Z" transform="translate(-40.5 -57.16)"></path><path class="cls-2" d="M101.41,195.86H84c0,3,.08,5.84,0,8.63l.13.06c0,.68-.08,1.36-.11,2-.06,1.55-.4,3-2.14,3.14-2,.14-2.46-1.42-2.51-3q-.18-6-.32-11.91h-.13c0-1.48,0-2.95,0-4.43.07-5.82.25-11.64.43-17.47,0-1.6.56-3.16,2.51-3,1.74.12,2.08,1.58,2.14,3.13.14,3.37.38,6.73.57,10h16.63c0-3.93.18-7.67,0-11.39-.68-11.51-6.81-17.59-16.39-18.57-12.62-1.29-23.27,4.76-23.69,19.41-.22,7.32-.16,14.64,0,22h-.14c0,4.23,0,8.47.13,12.7.26,9.26,4.62,15.08,11,17.79A18,18,0,0,0,75.32,226a22.59,22.59,0,0,0,2.59.44H78c.51.06,1,.12,1.54.15s.87.05,1.31.06h.28l1.59,0H83l.41,0,.47,0,.7-.06.2,0,.54-.07.54-.08c6.81-1,11.73-4.74,14-11.34C102.24,208.87,101.13,202.37,101.41,195.86Z" transform="translate(-40.5 -57.16)"></path></svg>