<?xml version="1.0" encoding="UTF-8"?>
<svg id="Layer_2" data-name="Layer 2" xmlns="http://www.w3.org/2000/svg" xmlns:xlink="http://www.w3.org/1999/xlink" viewBox="0 0 215.48 106.4">
  <defs>
    <style>
      .cls-1 {
        fill: url(#linear-gradient);
      }

      .cls-2 {
        fill: #414244;
      }

      .cls-3 {
        fill: #717171;
      }

      .cls-4 {
        fill: url(#linear-gradient-3);
      }

      .cls-5 {
        fill: url(#linear-gradient-4);
      }

      .cls-6 {
        fill: url(#linear-gradient-2);
      }

      .cls-7 {
        fill: url(#linear-gradient-6);
      }

      .cls-8 {
        fill: url(#linear-gradient-5);
      }
    </style>
    <linearGradient id="linear-gradient" x1="170.77" y1="5.83" x2="184.57" y2="45.99" gradientUnits="userSpaceOnUse">
      <stop offset="0" stop-color="#2a3277"/>
      <stop offset=".99" stop-color="#434e9d"/>
    </linearGradient>
    <linearGradient id="linear-gradient-2" x1="98.95" y1="-5.94" x2="119.72" y2="19.56" gradientUnits="userSpaceOnUse">
      <stop offset="0" stop-color="#491d4e"/>
      <stop offset=".99" stop-color="#9d4091"/>
    </linearGradient>
    <linearGradient id="linear-gradient-3" x1="26.32" y1="28.46" x2="50.28" y2="28.46" gradientUnits="userSpaceOnUse">
      <stop offset="0" stop-color="#d02f2f"/>
      <stop offset=".99" stop-color="#e84237"/>
    </linearGradient>
    <linearGradient id="linear-gradient-4" x1="95.84" y1="-7.56" x2="114.59" y2="22.4" xlink:href="#linear-gradient-2"/>
    <linearGradient id="linear-gradient-5" x1="165.05" y1="27.49" x2="188.84" y2="27.49" xlink:href="#linear-gradient"/>
    <linearGradient id="linear-gradient-6" x1="32.53" y1="53.71" x2="41.94" y2="16.68" xlink:href="#linear-gradient-3"/>
  </defs>
  <g id="Arte">
    <g>
      <g>
        <g>
          <path class="cls-2" d="m26.9,84.97c-1.96,0-2.96.91-3.01,2.74v11.31h-4.51v-10.39c0-5.05,2.53-7.58,7.58-7.58,2.27,0,4.03.5,5.29,1.5,1.26-.96,3.03-1.44,5.29-1.44,5.05,0,7.56,2.53,7.52,7.58v10.39h-2.29c-1.48-.09-2.22-.83-2.22-2.22v-9.08c-.09-1.83-1.11-2.74-3.07-2.74s-2.96.92-3.01,2.74v11.24h-4.51v-11.31c-.09-1.83-1.11-2.74-3.07-2.74Z"/>
          <path class="cls-2" d="m54.04,99.35c-1.74.13-3.22-.11-4.44-.72-1.83-.92-2.74-2.53-2.74-4.84.04-1.79.65-3.14,1.83-4.05,1.18-.91,3.12-1.5,5.82-1.76,1.92-.22,2.88-.81,2.88-1.76-.09-1-1.05-1.5-2.88-1.5-1.57,0-2.46.41-2.68,1.24h-4.44c.52-3.27,2.83-4.9,6.93-4.9,4.88,0,7.36,1.63,7.45,4.9v6.01c0,3.01-1.09,5.1-3.27,6.27-1.18.61-2.66.98-4.44,1.11Zm-3.86-21.63c0-.65.35-1.15,1.05-1.5.57-.17,1.18-.15,1.83.07.65.22,1.3.44,1.93.65.63.22,1.25.37,1.86.46.57.04,1.09-.22,1.57-.78,0,.83-.03,1.49-.1,1.99-.07.5-.45.82-1.14.95-.61.13-1.24.07-1.9-.2-.65-.26-1.3-.5-1.93-.72s-1.23-.31-1.8-.26c-.57.04-1.02.41-1.37,1.11v-1.76Zm3.73,13.46c-1.79.35-2.68,1.18-2.68,2.48.09,1.39.83,2.09,2.22,2.09,1.22,0,2.2-.35,2.94-1.05.7-.7,1.05-1.68,1.05-2.94v-1.63c-1.05.44-2.22.78-3.53,1.05Z"/>
          <path class="cls-2" d="m79.42,90.26c0,6.1-2.68,9.15-8.04,9.15s-8.04-3.05-8.04-9.15,2.68-9.22,8.04-9.22,8.04,3.07,8.04,9.22Zm-11.57,0c.04,3.44,1.2,5.16,3.46,5.16s3.42-1.76,3.46-5.29c0-3.44-1.13-5.16-3.4-5.16s-3.53,1.76-3.53,5.29Z"/>
          <path class="cls-2" d="m85.2,93.2c.04.92.37,1.57.98,1.96.57.44,1.46.65,2.68.65,1.87,0,2.81-.57,2.81-1.7,0-.92-1.53-1.63-4.58-2.16-3.92-.7-5.9-2.44-5.95-5.23,0-1.74.63-3.14,1.9-4.18,1.22-.96,2.94-1.46,5.16-1.5,2.27,0,4.07.5,5.42,1.5,1.31,1.05,2,2.48,2.09,4.31h-2.81c-1.05-.04-1.7-.41-1.96-1.11-.31-.78-1.2-1.18-2.68-1.18-1.74,0-2.61.46-2.61,1.37s1.15,1.59,3.46,2.03c3.01.61,4.99,1.37,5.95,2.29.83.87,1.24,1.92,1.24,3.14,0,1.96-.7,3.44-2.09,4.44-1.35,1-3.35,1.5-6.01,1.5-2.48,0-4.34-.52-5.56-1.57-1.35-1-2.03-2.53-2.03-4.57h4.57Z"/>
        </g>
        <g>
          <path class="cls-2" d="m110.79,99.35c-1.74.13-3.22-.11-4.44-.72-1.83-.92-2.74-2.53-2.74-4.84.04-1.79.65-3.14,1.83-4.05,1.18-.91,3.12-1.5,5.82-1.76,1.92-.22,2.88-.81,2.88-1.76-.09-1-1.05-1.5-2.88-1.5-1.57,0-2.46.41-2.68,1.24h-4.44c.52-3.27,2.83-4.9,6.93-4.9,4.88,0,7.36,1.63,7.45,4.9v6.01c0,3.01-1.09,5.1-3.27,6.27-1.18.61-2.66.98-4.44,1.11Zm-.13-8.17c-1.79.35-2.68,1.18-2.68,2.48.09,1.39.83,2.09,2.22,2.09,1.22,0,2.2-.35,2.94-1.05.7-.7,1.05-1.68,1.05-2.94v-1.63c-1.05.44-2.22.78-3.53,1.05Z"/>
          <path class="cls-2" d="m127.74,84.97c-1.96,0-2.96.91-3.01,2.74v11.31h-4.51v-10.39c0-5.05,2.53-7.58,7.58-7.58,2.27,0,4.03.5,5.29,1.5,1.26-.96,3.03-1.44,5.29-1.44,5.05,0,7.56,2.53,7.52,7.58v10.39h-2.29c-1.48-.09-2.22-.83-2.22-2.22v-9.08c-.09-1.83-1.11-2.74-3.07-2.74s-2.96.92-3.01,2.74v11.24h-4.51v-11.31c-.09-1.83-1.11-2.74-3.07-2.74Z"/>
          <path class="cls-2" d="m150.37,76.27c1.48,0,2.2.72,2.16,2.16v1.31h-4.44v-3.46h2.29Zm0,5.03c1.44,0,2.16.72,2.16,2.16v15.55h-4.44v-17.71h2.29Z"/>
          <path class="cls-2" d="m161.44,99.35c-4.71,0-7.06-3.05-7.06-9.15s2.74-8.87,8.23-8.95c5.53-.04,8.3,2.59,8.3,7.91v10.46c0,4.44-2.83,6.71-8.5,6.8-4.01,0-6.54-1.87-7.58-5.62h4.9c.31,1.26,1.37,1.9,3.2,1.9,2.35,0,3.53-1.37,3.53-4.12v-1.83c-1.13,1.74-2.81,2.61-5.03,2.61Zm1.24-3.92c2.4,0,3.66-1.7,3.79-5.1.04-3.57-1.2-5.36-3.73-5.36s-3.79,1.79-3.79,5.36c.09,3.4,1.33,5.1,3.73,5.1Z"/>
          <path class="cls-2" d="m179.37,99.35c-1.74.13-3.22-.11-4.44-.72-1.83-.92-2.75-2.53-2.75-4.84.04-1.79.65-3.14,1.83-4.05,1.18-.91,3.12-1.5,5.82-1.76,1.92-.22,2.88-.81,2.88-1.76-.09-1-1.05-1.5-2.88-1.5-1.57,0-2.46.41-2.68,1.24h-4.44c.52-3.27,2.83-4.9,6.93-4.9,4.88,0,7.36,1.63,7.45,4.9v6.01c0,3.01-1.09,5.1-3.27,6.27-1.18.61-2.66.98-4.44,1.11Zm-.13-8.17c-1.79.35-2.68,1.18-2.68,2.48.09,1.39.83,2.09,2.22,2.09,1.22,0,2.2-.35,2.94-1.05.7-.7,1.05-1.68,1.05-2.94v-1.63c-1.05.44-2.22.78-3.53,1.05Z"/>
          <path class="cls-2" d="m192.85,93.2c.04.92.37,1.57.98,1.96.57.44,1.46.65,2.68.65,1.87,0,2.81-.57,2.81-1.7,0-.92-1.52-1.63-4.57-2.16-3.92-.7-5.9-2.44-5.95-5.23,0-1.74.63-3.14,1.9-4.18,1.22-.96,2.94-1.46,5.16-1.5,2.27,0,4.07.5,5.42,1.5,1.31,1.05,2,2.48,2.09,4.31h-2.81c-1.05-.04-1.7-.41-1.96-1.11-.31-.78-1.2-1.18-2.68-1.18-1.74,0-2.61.46-2.61,1.37s1.15,1.59,3.46,2.03c3.01.61,4.99,1.37,5.95,2.29.83.87,1.24,1.92,1.24,3.14,0,1.96-.7,3.44-2.09,4.44-1.35,1-3.35,1.5-6.01,1.5-2.48,0-4.34-.52-5.56-1.57-1.35-1-2.03-2.53-2.03-4.57h4.57Z"/>
        </g>
      </g>
      <g>
        <path class="cls-1" d="m206.97,31.1c1.87-.96,3.83-1.17,5.85-.41,2.8,1.05,3.5,4.56,1.59,7.61-1.29,2.07-3.36,3.21-5.25,4.54-5.92,4.15-12,8.06-18.35,11.52-5.85,3.18-11.85,6.02-18.34,7.63-3.58.89-7.25,1.4-10.88.14-2.79-.97-4.82-2.98-6.55-5.26-3.35-4.41-5.23-9.51-6.74-14.77-.82-2.88-4.64-18.64-3.68-29.01.73-.76,3.63-4.26,6.39-4.54s6.22,1.19,6.36,3.04c.6,7.91,3.12,18.15,4.43,22.69,5.26,18.26,19.76,10.45,45.15-3.18Z"/>
        <path class="cls-6" d="m141.85,1.84c-4.32.63-7.63,3.43-10.14,6.98-2.84,4.03-5.28,8.33-8.31,12.23-2.89,3.71-5.77,7.44-9.79,10.02-4.2,2.7-6.54,2.87-10.44.07-3.51-2.52-6.33-5.75-9.11-9-3.06-3.58-10.87-14.55-12.18-15.74-5.99-1.19-9.43,2.79-10.35,7.44.92,1.38,9.94,14.97,13.64,19.82,4.55,5.96,9.33,11.68,15.1,16.54,4.33,3.65,8.92,4.81,14.19,2.05,3.77-1.98,6.92-4.72,9.73-7.84,2.85-3.17,8.7-10.97,13.32-19.36,5.68-10.31,11.19-19.62,19.87-13.51-.07-.67-2.14-11.64-15.53-9.71Z"/>
        <path class="cls-4" d="m38.29,16.51c6.72-.31,12.06,5.74,11.99,11.89-.08,6.59-5.36,12.09-11.95,12.01-6.7-.09-11.94-5.24-12.01-12-.07-6.35,5.37-12.18,11.97-11.9Z"/>
        <path class="cls-5" d="m108.07,24.01c-6.33.16-12-5.3-11.93-12.1C96.2,5.37,101.63-.02,108.2,0c6.56.02,11.79,5.39,11.89,12.03.1,6.83-5.91,12.3-12.02,11.98Z"/>
        <path class="cls-8" d="m176.94,39.38c-6.56.02-11.87-5.26-11.89-11.83-.02-6.74,5.16-11.95,11.88-11.96,6.71,0,11.89,5.13,11.9,11.81.01,6.73-5.18,11.96-11.9,11.98Z"/>
        <path class="cls-7" d="m54.89,65.52c-9.71,4.68-45.99-21.06-52.28-25.7-3.2-2.36-3.52-6.54-.6-8.64,2.1-1.51,4.41-1.14,6.51.02,4.2,2.32,29.84,19.46,37.77,15.58,15.24-7.47,3.57-43.02,25.71-45.53,5.97-.16,9.56,4.82,9.96,5.25-11.87-1.84-11.25,12.28-13.07,27.23-1.61,13.18-4.46,27.21-14,31.8Z"/>
      </g>
      <g>
        <path class="cls-3" d="m76.02,71.65c-.19,0-.34-.05-.44-.16-.1-.11-.15-.26-.15-.45v-5.51c0-.2.05-.35.15-.46.1-.11.25-.16.44-.16s.34.05.44.16c.1.11.15.26.15.46v5.51c0,.19-.05.34-.15.45s-.25.16-.45.16Z"/>
        <path class="cls-3" d="m81.43,71.65c-.18,0-.32-.05-.42-.15-.1-.1-.15-.24-.15-.43v-5.57c0-.19.05-.34.15-.44.1-.1.22-.15.38-.15.14,0,.25.03.32.08.07.05.16.14.26.27l3.59,4.65h-.24v-4.43c0-.18.05-.32.15-.42.1-.1.24-.15.42-.15s.32.05.41.15c.09.1.14.24.14.42v5.62c0,.17-.04.31-.13.41-.09.1-.21.15-.36.15s-.26-.03-.34-.08c-.08-.06-.18-.15-.28-.27l-3.58-4.65h.23v4.43c0,.19-.05.33-.14.43-.09.1-.23.15-.41.15Z"/>
        <path class="cls-3" d="m92.96,71.67c-.27,0-.55-.02-.82-.06-.27-.04-.53-.1-.78-.19-.24-.08-.46-.19-.66-.31-.11-.07-.19-.17-.23-.27-.04-.11-.06-.21-.04-.31.02-.1.06-.19.12-.27.07-.08.15-.13.25-.15s.21,0,.33.08c.27.16.56.28.87.36.31.08.63.11.96.11.49,0,.85-.08,1.08-.25s.34-.38.34-.64c0-.22-.08-.39-.24-.51-.16-.12-.43-.23-.82-.31l-1.03-.22c-.59-.12-1.03-.34-1.32-.63-.29-.3-.44-.69-.44-1.17,0-.31.06-.58.19-.83.12-.25.3-.46.53-.65s.5-.32.81-.42c.31-.1.66-.15,1.04-.15s.73.05,1.07.14c.34.09.64.23.91.41.1.07.17.15.2.25.03.1.04.2.02.29-.02.1-.06.18-.13.25-.07.07-.15.11-.26.12-.1.01-.22-.02-.35-.09-.23-.13-.46-.22-.7-.28s-.49-.08-.77-.08-.53.04-.74.12c-.21.08-.36.2-.47.34s-.16.32-.16.52c0,.22.07.4.22.54.15.13.41.24.77.31l1.02.22c.62.13,1.08.34,1.38.62.3.28.45.66.45,1.12,0,.3-.06.57-.18.81s-.3.45-.52.63c-.23.17-.5.31-.82.4-.32.09-.68.14-1.08.14Z"/>
        <path class="cls-3" d="m101.45,71.65c-.19,0-.34-.05-.44-.16-.1-.11-.15-.26-.15-.45v-5.05h-1.83c-.16,0-.29-.05-.38-.14-.09-.09-.14-.21-.14-.37s.05-.29.14-.37c.09-.08.22-.13.38-.13h4.85c.16,0,.29.04.38.13.09.08.14.21.14.37s-.05.28-.14.37-.22.14-.38.14h-1.83v5.05c0,.19-.05.34-.15.45s-.25.16-.45.16Z"/>
        <path class="cls-3" d="m108.48,71.65c-.19,0-.34-.05-.44-.16-.1-.11-.15-.26-.15-.45v-5.51c0-.2.05-.35.15-.46.1-.11.25-.16.44-.16s.34.05.44.16c.1.11.15.26.15.46v5.51c0,.19-.05.34-.15.45s-.25.16-.45.16Z"/>
        <path class="cls-3" d="m115.52,71.65c-.19,0-.34-.05-.44-.16-.1-.11-.15-.26-.15-.45v-5.05h-1.83c-.16,0-.29-.05-.38-.14-.09-.09-.14-.21-.14-.37s.05-.29.14-.37c.09-.08.22-.13.38-.13h4.85c.16,0,.29.04.38.13.09.08.14.21.14.37s-.05.28-.14.37-.22.14-.38.14h-1.83v5.05c0,.19-.05.34-.15.45s-.25.16-.45.16Z"/>
        <path class="cls-3" d="m124.69,71.67c-.46,0-.86-.06-1.2-.18-.35-.12-.64-.29-.88-.53-.24-.23-.42-.53-.53-.88s-.18-.76-.18-1.22v-3.36c0-.21.05-.36.15-.46.1-.1.25-.15.44-.15s.34.05.44.15c.1.1.15.25.15.46v3.35c0,.59.14,1.04.41,1.33.27.3.67.44,1.18.44s.91-.15,1.18-.44c.27-.3.4-.74.4-1.33v-3.35c0-.21.05-.36.15-.46s.25-.15.44-.15.33.05.44.15.15.25.15.46v3.36c0,.61-.1,1.13-.31,1.54-.21.42-.52.73-.93.94s-.92.31-1.53.31Z"/>
        <path class="cls-3" d="m133.85,71.65c-.19,0-.34-.05-.44-.16-.1-.11-.15-.26-.15-.45v-5.05h-1.83c-.16,0-.29-.05-.38-.14-.09-.09-.14-.21-.14-.37s.05-.29.14-.37c.09-.08.22-.13.38-.13h4.85c.16,0,.29.04.38.13.09.08.14.21.14.37s-.05.28-.14.37-.22.14-.38.14h-1.83v5.05c0,.19-.05.34-.15.45s-.25.16-.45.16Z"/>
        <path class="cls-3" d="m142.84,71.67c-.64,0-1.19-.14-1.67-.42-.48-.28-.85-.68-1.11-1.18-.26-.51-.39-1.11-.39-1.79,0-.52.07-.98.22-1.4.15-.41.36-.77.64-1.07.28-.3.61-.52,1-.68.39-.16.83-.24,1.31-.24.64,0,1.2.14,1.68.42.47.28.84.67,1.1,1.17.26.51.39,1.1.39,1.79,0,.52-.08.99-.22,1.4-.15.42-.36.78-.64,1.08s-.61.53-1,.69-.83.24-1.31.24Zm0-1.03c.41,0,.75-.09,1.03-.28.28-.19.5-.46.66-.81.15-.36.23-.78.23-1.27,0-.75-.17-1.33-.5-1.74s-.81-.62-1.42-.62c-.4,0-.74.09-1.03.28-.29.18-.51.45-.66.81s-.23.78-.23,1.28c0,.74.17,1.32.51,1.74.34.42.81.63,1.41.63Z"/>
      </g>
    </g>
  </g>
</svg>